<svg width="53" height="55" viewBox="0 0 53 55" fill="none" xmlns="http://www.w3.org/2000/svg">
<rect y="5" width="53" height="50" rx="15" fill="#870C0E"/>
<rect width="53" height="50" rx="15" fill="#BE2729"/>
<path fill-rule="evenodd" clip-rule="evenodd" d="M11.3789 10.4827H33.5435C38.9532 10.4827 43.3789 14.6318 43.3789 19.7033V40.4827H37.979V22.4811C37.979 18.6664 34.6496 15.5451 30.5806 15.5451H11.3789V10.4827ZM11.3789 17.9781V23.0406H26.6683C28.4919 23.0406 29.9838 24.4392 29.9838 26.1488V40.4827H35.3838V23.6091C35.3838 20.5126 32.6803 17.9781 29.3773 17.9781H11.3789ZM11.3789 25.4736V38.9071C11.3789 39.7736 12.1353 40.4827 13.0595 40.4827H27.3886V27.0492C27.3886 26.1826 26.6323 25.4736 25.708 25.4736H11.3789ZM15.4035 29.248V31.6809H19.8348C20.3483 31.6809 20.7674 32.0739 20.7674 32.5553V36.7096H23.3626V31.0681C23.3626 30.0663 22.4883 29.248 21.4211 29.248H15.4035Z" fill="white"/>
</svg>
