<svg width="63" height="55" viewBox="0 0 63 55" fill="none" xmlns="http://www.w3.org/2000/svg">
<rect y="5" width="53" height="50" rx="15" fill="#014EC0"/>
<rect width="53" height="50" rx="15" fill="#2CA1FB"/>
<path fill-rule="evenodd" clip-rule="evenodd" d="M39.8165 11.7902L35.3503 38.6171C35.2915 38.955 35.1005 39.2194 34.792 39.4104C34.6304 39.4986 34.4541 39.5427 34.2484 39.5427C34.1162 39.5427 33.9839 39.5133 33.8223 39.4545L25.9036 36.2223L21.6724 41.3791C21.4667 41.6435 21.1729 41.7758 20.8203 41.7758C20.6734 41.7758 20.5411 41.7464 20.4383 41.7023C20.2179 41.6142 20.0416 41.4819 19.9094 41.2909C19.7772 41.1 19.7037 40.8796 19.7037 40.6592L19.7037 34.5622L34.8067 16.0655L16.1337 32.2262L9.2286 29.3908C8.80255 29.2291 8.58217 28.9206 8.5381 28.4358C8.50871 27.9657 8.69971 27.6278 9.09638 27.4074L38.1564 10.6443C38.3327 10.5414 38.5237 10.4827 38.7146 10.4827C38.9497 10.4827 39.1554 10.5414 39.3464 10.6737C39.7284 10.9528 39.89 11.3201 39.8165 11.7902Z" fill="white"/>
<circle cx="53.1039" cy="9.48276" r="9.48276" fill="#BE2729"/>
<path d="M52.5713 13.2759H48.0547V12.0554L50.8293 8.83224C51.0866 8.52626 51.2153 8.22724 51.2153 7.93517C51.2153 7.65701 51.1353 7.43448 50.9754 7.26758C50.8224 7.09373 50.6033 7.00681 50.3182 7.00681C50.0609 7.00681 49.8453 7.0833 49.6715 7.23629C49.4976 7.38233 49.4107 7.62224 49.4107 7.95603H48.0547C48.0547 7.2954 48.2668 6.77037 48.691 6.38095C49.1221 5.98457 49.6645 5.78638 50.3182 5.78638C50.9858 5.78638 51.5282 5.98109 51.9455 6.37051C52.3627 6.75994 52.5713 7.28497 52.5713 7.9456C52.5713 8.27939 52.5122 8.56103 52.394 8.79052C52.2758 9.02 52.0706 9.30511 51.7786 9.64586L49.7028 12.0554H52.5713V13.2759Z" fill="white"/>
<path d="M58.1933 11.1271C58.1933 11.8086 57.9743 12.3475 57.5362 12.7439C57.105 13.1403 56.573 13.3384 55.9402 13.3384C55.3074 13.3384 54.7719 13.1403 54.3338 12.7439C53.8957 12.3475 53.6767 11.8086 53.6767 11.1271V7.99776C53.6767 7.31626 53.8957 6.77733 54.3338 6.38095C54.7719 5.98457 55.3074 5.78638 55.9402 5.78638C56.573 5.78638 57.105 5.98457 57.5362 6.38095C57.9743 6.77733 58.1933 7.31626 58.1933 7.99776V11.1271ZM56.8373 11.1166V8.01862C56.8373 7.70569 56.7538 7.45882 56.5869 7.27802C56.427 7.09721 56.2114 7.00681 55.9402 7.00681C55.669 7.00681 55.45 7.09721 55.2831 7.27802C55.1162 7.45882 55.0327 7.70569 55.0327 8.01862V11.1166C55.0327 11.4296 55.1162 11.6764 55.2831 11.8572C55.45 12.0311 55.669 12.118 55.9402 12.118C56.2114 12.118 56.427 12.0311 56.5869 11.8572C56.7538 11.6764 56.8373 11.4296 56.8373 11.1166Z" fill="white"/>
</svg>
