<svg width="43" height="55" viewBox="0 0 43 55" fill="none" xmlns="http://www.w3.org/2000/svg">
<path fill-rule="evenodd" clip-rule="evenodd" d="M0 0H29.5969C36.8205 0 42.7302 5.90973 42.7302 13.1334V42.7302H35.5196V17.0899C35.5196 11.6564 31.0738 7.21065 25.6404 7.21065H0V0ZM0 10.6761V17.8867H20.4163C22.8513 17.8867 24.8435 19.8789 24.8435 22.3139V42.7302H32.0541V18.6966C32.0541 14.286 28.4442 10.6761 24.0337 10.6761H0ZM0 21.3521V40.486C0 41.7202 1.00997 42.7302 2.24418 42.7302H21.3762V23.5963C21.3762 22.3621 20.3663 21.3521 19.132 21.3521H0ZM5.37417 26.7263V30.1917H11.2913C11.977 30.1917 12.5366 30.7514 12.5366 31.437V37.3542H16.0021V29.3189C16.0021 27.8919 14.8346 26.7263 13.4076 26.7263H5.37417Z" fill="#BE2729"/>
<path fill-rule="evenodd" clip-rule="evenodd" d="M0 46.1956H3.01695L6.73439 50.8266V46.1956H19.0968L20.3329 50.8099L21.6375 46.1956H23.9262L25.2308 50.8099L26.4669 46.1956H34.1964V48.3693H32.1653H31.8837C31.5853 48.3693 31.4296 48.5898 31.4296 48.8882V48.9104C31.4296 49.0272 31.4908 49.1551 31.5927 49.2125L33.4366 50.2762C34.0741 50.6431 34.4651 51.3233 34.4651 52.0571V52.5093C34.4651 53.8843 33.3514 54.9981 31.9763 54.9981H29.0705V52.8243H31.6594C31.9411 52.8243 32.169 52.5964 32.169 52.3147C32.169 52.1979 32.1079 52.0923 32.006 52.033L30.0991 50.9322C29.4634 50.5653 29.0705 49.8852 29.0705 49.1514V48.7603C29.0705 48.6251 29.0835 48.4935 29.1095 48.3656H28.3664L26.5892 54.9962H24.3209L22.7846 50.1002L21.2484 54.9962H18.9801L17.2029 48.3656H13.2612V49.509H15.7333V51.6828H13.2612V52.8262H16.4765V54.9999H11.3543C11.1023 54.9999 10.8947 54.7942 10.8947 54.5403V48.3675H9.10088V54.5403C9.10088 54.7924 8.89518 54.9999 8.64129 54.9999H8.41706L7.12726 54.9758L3.40982 50.3448V54.9999H1.04518V48.3693H0V46.1956Z" fill="#3C4956"/>
<path d="M36.1383 48.6233H35.2655V49.4961H36.1383V48.6233Z" fill="#BE2729"/>
<path fill-rule="evenodd" clip-rule="evenodd" d="M36.57 46.1956H38.3434C38.8568 46.1956 39.2774 46.6162 39.2774 47.1296V47.3408C39.2774 47.7077 39.0643 48.0265 38.7548 48.1784L39.737 49.496H38.8772L37.9654 48.2748H37.73V49.496H37.0407V46.8423H36.5681V46.1956H36.57ZM37.7319 46.8238V47.6466H38.1637C38.3675 47.6466 38.5325 47.4798 38.5325 47.2778V47.1944C38.5325 46.9906 38.3657 46.8256 38.1637 46.8256H37.7319V46.8238Z" fill="#BE2729"/>
<path fill-rule="evenodd" clip-rule="evenodd" d="M39.6758 46.1956H40.7544V48.2396C40.7544 48.562 41.0175 48.8252 41.34 48.8252H41.4716C41.794 48.8252 42.0572 48.562 42.0572 48.2396V46.8423H41.642V46.1956H42.728V48.3082C42.728 48.9623 42.1924 49.496 41.5401 49.496H41.2714C40.6172 49.496 40.0835 48.9605 40.0835 48.3082V46.8423H39.6758V46.1956Z" fill="#BE2729"/>
</svg>
