<svg width="34" height="33" viewBox="0 0 34 33" fill="none" xmlns="http://www.w3.org/2000/svg">
<path fill-rule="evenodd" clip-rule="evenodd" d="M32.9876 1.37888L28.2778 29.669C28.2158 30.0254 28.0144 30.3042 27.689 30.5056C27.5186 30.5986 27.3327 30.6451 27.1158 30.6451C26.9763 30.6451 26.8369 30.6141 26.6665 30.5521L18.3158 27.1437L13.8538 32.5817C13.6369 32.8606 13.327 33 12.9552 33C12.8003 33 12.6608 32.969 12.5524 32.9225C12.32 32.8296 12.1341 32.6901 11.9947 32.4887C11.8552 32.2873 11.7777 32.0549 11.7777 31.8225L11.7777 25.393L27.7045 5.88733L8.01296 22.9296L0.731271 19.9394C0.281975 19.769 0.0495804 19.4437 0.00310154 18.9324C-0.0278843 18.4366 0.173524 18.0803 0.591834 17.8479L31.2369 0.170425C31.4228 0.0619746 31.6242 2.76468e-06 31.8256 2.78229e-06C32.0735 2.80396e-06 32.2904 0.0619746 32.4918 0.201411C32.8947 0.495778 33.0651 0.883101 32.9876 1.37888Z" fill="white"/>
</svg>
